{
  "accessors": [
    {
      "bufferView": 2,
      "componentType": 5126,
      "count": 13786,
      "max": [
        9.319316864013672,
        -36.26533508300781,
        7.8884077072143555
      ],
      "min": [
        -9.319315910339355,
        -59.22098922729492,
        -8.049394607543945
      ],
      "type": "VEC3"
    },
    {
      "bufferView": 2,
      "byteOffset": 165432,
      "componentType": 5126,
      "count": 13786,
      "max": [
        0.9996857643127441,
        0.9928086400032043,
        0.9998943209648132
      ],
      "min": [
        -0.9996857643127441,
        -0.9928444623947144,
        -0.9998943209648132
      ],
      "type": "VEC3"
    },
    {
      "bufferView": 1,
      "componentType": 5126,
      "count": 13786,
      "max": [
        1.5562206506729126,
        1.438568353652954
      ],
      "min": [
        -0.5779516696929932,
        -0.4757136404514313
      ],
      "type": "VEC2"
    },
    {
      "bufferView": 0,
      "componentType": 5125,
      "count": 80352,
      "type": "SCALAR"
    },
    {
      "bufferView": 2,
      "byteOffset": 330864,
      "componentType": 5126,
      "count": 23330,
      "max": [
        300.5,
        62.802467346191406,
        500.0056457519531
      ],
      "min": [
        -300.5,
        -62.80235290527344,
        -0.4879907965660095
      ],
      "type": "VEC3"
    },
    {
      "bufferView": 2,
      "byteOffset": 610824,
      "componentType": 5126,
      "count": 23330,
      "max": [
        1.0,
        0.9999998807907104,
        1.0
      ],
      "min": [
        -1.0,
        -0.9999998807907104,
        -1.0
      ],
      "type": "VEC3"
    },
    {
      "bufferView": 1,
      "byteOffset": 110288,
      "componentType": 5126,
      "count": 23330,
      "max": [
        0.9412555694580078,
        0.9216768741607666
      ],
      "min": [
        0.039937861263751984,
        0.05059255659580231
      ],
      "type": "VEC2"
    },
    {
      "bufferView": 0,
      "byteOffset": 321408,
      "componentType": 5125,
      "count": 138240,
      "type": "SCALAR"
    }
  ],
  "asset": {
    "extras": {
      "author": "legenny (https://sketchfab.com/legenny)",
      "license": "CC-BY-4.0 (http://creativecommons.org/licenses/by/4.0/)",
      "source": "https://sketchfab.com/3d-models/sac-a-anses-50x60-sans-soufflet-000a3d9fa4ff4c888e71e698694eb0b0",
      "title": "Sac à Anses 50x60 sans soufflet"
    },
    "generator": "Sketchfab-12.67.0",
    "version": "2.0"
  },
  "bufferViews": [
    {
      "buffer": 0,
      "byteLength": 874368,
      "name": "floatBufferViews",
      "target": 34963
    },
    {
      "buffer": 0,
      "byteLength": 296928,
      "byteOffset": 874368,
      "byteStride": 8,
      "name": "floatBufferViews",
      "target": 34962
    },
    {
      "buffer": 0,
      "byteLength": 890784,
      "byteOffset": 1171296,
      "byteStride": 12,
      "name": "floatBufferViews",
      "target": 34962
    }
  ],
  "buffers": [
    {
      "byteLength": 2062080,
      "uri": "scene.bin"
    }
  ],
  "images": [
    {
      "uri": "textures/Material_114_baseColor.png"
    }
  ],
  "materials": [
    {
      "doubleSided": true,
      "name": "Material_114",
      "pbrMetallicRoughness": {
        "baseColorTexture": {
          "index": 0
        },
        "metallicFactor": 0.0,
        "roughnessFactor": 0.6
      }
    }
  ],
  "meshes": [
    {
      "name": "17341_Tote_bag_womens002_Material #114_0",
      "primitives": [
        {
          "attributes": {
            "NORMAL": 1,
            "POSITION": 0,
            "TEXCOORD_0": 2
          },
          "indices": 3,
          "material": 0,
          "mode": 4
        }
      ]
    },
    {
      "name": "Box076_Material #114_0",
      "primitives": [
        {
          "attributes": {
            "NORMAL": 5,
            "POSITION": 4,
            "TEXCOORD_0": 6
          },
          "indices": 7,
          "material": 0,
          "mode": 4
        }
      ]
    }
  ],
  "nodes": [
    {
      "children": [
        1
      ],
      "matrix": [
        1.0,
        0.0,
        0.0,
        0.0,
        0.0,
        2.220446049250313e-16,
        -1.0,
        0.0,
        0.0,
        1.0,
        2.220446049250313e-16,
        0.0,
        0.0,
        0.0,
        0.0,
        1.0
      ],
      "name": "Sketchfab_model"
    },
    {
      "children": [
        2
      ],
      "matrix": [
        1.0,
        0.0,
        0.0,
        0.0,
        0.0,
        0.0,
        1.0,
        0.0,
        0.0,
        -1.0,
        0.0,
        0.0,
        0.0,
        0.0,
        0.0,
        1.0
      ],
      "name": "905a5a1fe7bf422fa95c5130c96f083c.fbx"
    },
    {
      "children": [
        3
      ],
      "name": "RootNode"
    },
    {
      "children": [
        4,
        7
      ],
      "matrix": [
        1.0,
        0.0,
        0.0,
        0.0,
        0.0,
        2.220446049250313e-16,
        -1.0,
        0.0,
        0.0,
        1.0,
        2.220446049250313e-16,
        0.0,
        885.8612670898438,
        761.693115234375,
        -570.5001220703125,
        1.0
      ],
      "name": "Group001"
    },
    {
      "children": [
        5
      ],
      "matrix": [
        9.204495429992676,
        0.0,
        0.0,
        0.0,
        0.0,
        -1.4206266304774761e-06,
        -8.71974372863758,
        0.0,
        0.0,
        8.71974372863758,
        -1.4206266304774761e-06,
        0.0,
        0.0,
        0.7017822265625,
        131.2435302734375,
        1.0
      ],
      "name": "17341_Tote_bag_womens002"
    },
    {
      "children": [
        6
      ],
      "matrix": [
        1.0,
        0.0,
        -0.0,
        0.0,
        0.0,
        1.0,
        0.0,
        0.0,
        0.0,
        0.0,
        1.0,
        0.0,
        0.0,
        36.35234069824219,
        -1.5699238247179892e-06,
        1.0
      ],
      "name": "Object_5"
    },
    {
      "mesh": 0,
      "name": "17341_Tote_bag_womens002_Material #114_0"
    },
    {
      "children": [
        8
      ],
      "matrix": [
        1.0,
        0.0,
        0.0,
        0.0,
        0.0,
        1.0,
        0.0,
        0.0,
        0.0,
        0.0,
        1.0,
        0.0,
        0.0,
        0.21240234375,
        -330.1644287109375,
        1.0
      ],
      "name": "Box076"
    },
    {
      "mesh": 1,
      "name": "Box076_Material #114_0"
    }
  ],
  "samplers": [
    {
      "magFilter": 9729,
      "minFilter": 9987,
      "wrapS": 10497,
      "wrapT": 10497
    }
  ],
  "scene": 0,
  "scenes": [
    {
      "name": "Sketchfab_Scene",
      "nodes": [
        0
      ]
    }
  ],
  "textures": [
    {
      "sampler": 0,
      "source": 0
    }
  ]
}
